# xmcd CD database file generated by Grip 2.96
# 
# Track frame offsets:
#       150
#       13307
#       27215
#       38427
#       51442
#       63907
#       79667
#       94875
#       109032
#       124175
#       141017
#       155915
# 
# Disc length: 2339 seconds
# 
# Revision: 0
# Processed by: cddbd v1.4PL0 Copyright (c) Steve Scherf et al.
# Submitted via: Grip 2.96
# 
DISCID=9d09210c
DTITLE=Sammy Kershaw - The Best of Sammy Kershaw The Millennium Collection
DYEAR=1900
DGENRE=
TTITLE0=Cadillac Style
TTITLE1=Don't Go Near The Water
TTITLE2=Anywhere But Here
TTITLE3=She Don't Know She's Beautiful
TTITLE4=Haunted Heart
TTITLE5=Queen of My Double Wide Trailer
TTITLE6=I Can't Reach Her Anymore
TTITLE7=National Working Woman's Holiday
TTITLE8=Third Rate Romance
TTITLE9=Meant To Be
TTITLE10=Vidalia
TTITLE11=Love of My Life
EXTD=
EXTT0=
EXTT1=
EXTT2=
EXTT3=
EXTT4=
EXTT5=
EXTT6=
EXTT7=
EXTT8=
EXTT9=
EXTT10=
EXTT11=
PLAYORDER=
